<mxfile host="app.diagrams.net" modified="2022-03-09T15:51:12.980Z" agent="5.0 (Windows NT 10.0; Win64; x64) AppleWebKit/537.36 (KHTML, like Gecko) Chrome/99.0.4844.51 Safari/537.36" etag="SHB3-KVsqX5Vmq8GDYih" version="16.6.5" type="github" pages="4">
  <diagram id="fkckT2i1-y8JkAY0Mg1q" name="Page-1">
    <mxGraphModel dx="1038" dy="539" grid="1" gridSize="10" guides="1" tooltips="1" connect="1" arrows="1" fold="1" page="1" pageScale="1" pageWidth="827" pageHeight="1169" math="0" shadow="0">
      <root>
        <mxCell id="0" />
        <mxCell id="1" parent="0" />
        <mxCell id="1WSZ2IgdBwN5rXEGsz6p-2" style="edgeStyle=orthogonalEdgeStyle;rounded=0;orthogonalLoop=1;jettySize=auto;html=1;exitX=0.5;exitY=1;exitDx=0;exitDy=0;" edge="1" parent="1" source="1WSZ2IgdBwN5rXEGsz6p-1">
          <mxGeometry relative="1" as="geometry">
            <mxPoint x="370" y="90" as="targetPoint" />
          </mxGeometry>
        </mxCell>
        <mxCell id="1WSZ2IgdBwN5rXEGsz6p-1" value="начало" style="ellipse;whiteSpace=wrap;html=1;" vertex="1" parent="1">
          <mxGeometry x="310" y="10" width="120" height="50" as="geometry" />
        </mxCell>
        <mxCell id="1WSZ2IgdBwN5rXEGsz6p-4" style="edgeStyle=orthogonalEdgeStyle;rounded=0;orthogonalLoop=1;jettySize=auto;html=1;" edge="1" parent="1" source="1WSZ2IgdBwN5rXEGsz6p-3">
          <mxGeometry relative="1" as="geometry">
            <mxPoint x="370" y="160" as="targetPoint" />
          </mxGeometry>
        </mxCell>
        <mxCell id="1WSZ2IgdBwN5rXEGsz6p-3" value="ввести знак операции" style="shape=parallelogram;perimeter=parallelogramPerimeter;whiteSpace=wrap;html=1;fixedSize=1;" vertex="1" parent="1">
          <mxGeometry x="310" y="90" width="120" height="40" as="geometry" />
        </mxCell>
        <mxCell id="1WSZ2IgdBwN5rXEGsz6p-6" style="edgeStyle=orthogonalEdgeStyle;rounded=0;orthogonalLoop=1;jettySize=auto;html=1;exitX=0.5;exitY=1;exitDx=0;exitDy=0;" edge="1" parent="1" source="1WSZ2IgdBwN5rXEGsz6p-5">
          <mxGeometry relative="1" as="geometry">
            <mxPoint x="360" y="250" as="targetPoint" />
          </mxGeometry>
        </mxCell>
        <mxCell id="1WSZ2IgdBwN5rXEGsz6p-5" value="ввести a&lt;br&gt;ввести b" style="shape=parallelogram;perimeter=parallelogramPerimeter;whiteSpace=wrap;html=1;fixedSize=1;" vertex="1" parent="1">
          <mxGeometry x="300" y="160" width="130" height="60" as="geometry" />
        </mxCell>
        <mxCell id="1WSZ2IgdBwN5rXEGsz6p-8" value="да" style="edgeStyle=orthogonalEdgeStyle;rounded=0;orthogonalLoop=1;jettySize=auto;html=1;exitX=1;exitY=0.5;exitDx=0;exitDy=0;" edge="1" parent="1" source="1WSZ2IgdBwN5rXEGsz6p-7">
          <mxGeometry relative="1" as="geometry">
            <mxPoint x="440" y="340" as="targetPoint" />
          </mxGeometry>
        </mxCell>
        <mxCell id="1WSZ2IgdBwN5rXEGsz6p-9" value="нет" style="edgeStyle=orthogonalEdgeStyle;rounded=0;orthogonalLoop=1;jettySize=auto;html=1;exitX=0;exitY=0.5;exitDx=0;exitDy=0;" edge="1" parent="1" source="1WSZ2IgdBwN5rXEGsz6p-7">
          <mxGeometry relative="1" as="geometry">
            <mxPoint x="300" y="340" as="targetPoint" />
          </mxGeometry>
        </mxCell>
        <mxCell id="1WSZ2IgdBwN5rXEGsz6p-7" value="&quot;+&quot;" style="rhombus;whiteSpace=wrap;html=1;" vertex="1" parent="1">
          <mxGeometry x="325" y="250" width="80" height="80" as="geometry" />
        </mxCell>
        <mxCell id="1WSZ2IgdBwN5rXEGsz6p-30" style="edgeStyle=orthogonalEdgeStyle;rounded=0;orthogonalLoop=1;jettySize=auto;html=1;" edge="1" parent="1" source="1WSZ2IgdBwN5rXEGsz6p-10">
          <mxGeometry relative="1" as="geometry">
            <mxPoint x="430" y="880" as="targetPoint" />
          </mxGeometry>
        </mxCell>
        <mxCell id="1WSZ2IgdBwN5rXEGsz6p-10" value="def add(a+b)" style="rhombus;whiteSpace=wrap;html=1;" vertex="1" parent="1">
          <mxGeometry x="405" y="340" width="80" height="80" as="geometry" />
        </mxCell>
        <mxCell id="1WSZ2IgdBwN5rXEGsz6p-12" value="да" style="edgeStyle=orthogonalEdgeStyle;rounded=0;orthogonalLoop=1;jettySize=auto;html=1;" edge="1" parent="1" source="1WSZ2IgdBwN5rXEGsz6p-11">
          <mxGeometry relative="1" as="geometry">
            <mxPoint x="360" y="440" as="targetPoint" />
          </mxGeometry>
        </mxCell>
        <mxCell id="1WSZ2IgdBwN5rXEGsz6p-14" value="нет" style="edgeStyle=orthogonalEdgeStyle;rounded=0;orthogonalLoop=1;jettySize=auto;html=1;exitX=0;exitY=0.5;exitDx=0;exitDy=0;" edge="1" parent="1" source="1WSZ2IgdBwN5rXEGsz6p-11">
          <mxGeometry relative="1" as="geometry">
            <mxPoint x="210" y="440" as="targetPoint" />
          </mxGeometry>
        </mxCell>
        <mxCell id="1WSZ2IgdBwN5rXEGsz6p-11" value="&quot;-&quot;" style="rhombus;whiteSpace=wrap;html=1;" vertex="1" parent="1">
          <mxGeometry x="260" y="340" width="80" height="80" as="geometry" />
        </mxCell>
        <mxCell id="1WSZ2IgdBwN5rXEGsz6p-29" style="edgeStyle=orthogonalEdgeStyle;rounded=0;orthogonalLoop=1;jettySize=auto;html=1;" edge="1" parent="1" source="1WSZ2IgdBwN5rXEGsz6p-13">
          <mxGeometry relative="1" as="geometry">
            <mxPoint x="360" y="880" as="targetPoint" />
          </mxGeometry>
        </mxCell>
        <mxCell id="1WSZ2IgdBwN5rXEGsz6p-13" value="def sub(a - b)" style="rhombus;whiteSpace=wrap;html=1;" vertex="1" parent="1">
          <mxGeometry x="320" y="440" width="80" height="80" as="geometry" />
        </mxCell>
        <mxCell id="1WSZ2IgdBwN5rXEGsz6p-16" value="да" style="edgeStyle=orthogonalEdgeStyle;rounded=0;orthogonalLoop=1;jettySize=auto;html=1;" edge="1" parent="1" source="1WSZ2IgdBwN5rXEGsz6p-15">
          <mxGeometry relative="1" as="geometry">
            <mxPoint x="290" y="560" as="targetPoint" />
          </mxGeometry>
        </mxCell>
        <mxCell id="1WSZ2IgdBwN5rXEGsz6p-17" value="нет" style="edgeStyle=orthogonalEdgeStyle;rounded=0;orthogonalLoop=1;jettySize=auto;html=1;" edge="1" parent="1" source="1WSZ2IgdBwN5rXEGsz6p-15">
          <mxGeometry relative="1" as="geometry">
            <mxPoint x="120" y="560" as="targetPoint" />
          </mxGeometry>
        </mxCell>
        <mxCell id="1WSZ2IgdBwN5rXEGsz6p-15" value="&quot;*&quot;" style="rhombus;whiteSpace=wrap;html=1;" vertex="1" parent="1">
          <mxGeometry x="170" y="440" width="80" height="80" as="geometry" />
        </mxCell>
        <mxCell id="1WSZ2IgdBwN5rXEGsz6p-28" style="edgeStyle=orthogonalEdgeStyle;rounded=0;orthogonalLoop=1;jettySize=auto;html=1;" edge="1" parent="1" source="1WSZ2IgdBwN5rXEGsz6p-18">
          <mxGeometry relative="1" as="geometry">
            <mxPoint x="290" y="880" as="targetPoint" />
          </mxGeometry>
        </mxCell>
        <mxCell id="1WSZ2IgdBwN5rXEGsz6p-18" value="def(a*b)" style="rhombus;whiteSpace=wrap;html=1;" vertex="1" parent="1">
          <mxGeometry x="250" y="560" width="80" height="80" as="geometry" />
        </mxCell>
        <mxCell id="1WSZ2IgdBwN5rXEGsz6p-20" value="lда" style="edgeStyle=orthogonalEdgeStyle;rounded=0;orthogonalLoop=1;jettySize=auto;html=1;" edge="1" parent="1" source="1WSZ2IgdBwN5rXEGsz6p-19">
          <mxGeometry relative="1" as="geometry">
            <mxPoint x="200" y="680" as="targetPoint" />
          </mxGeometry>
        </mxCell>
        <mxCell id="1WSZ2IgdBwN5rXEGsz6p-21" style="edgeStyle=orthogonalEdgeStyle;rounded=0;orthogonalLoop=1;jettySize=auto;html=1;" edge="1" parent="1" source="1WSZ2IgdBwN5rXEGsz6p-19">
          <mxGeometry relative="1" as="geometry">
            <mxPoint x="40" y="680" as="targetPoint" />
          </mxGeometry>
        </mxCell>
        <mxCell id="1WSZ2IgdBwN5rXEGsz6p-19" value="&quot;/&quot;" style="rhombus;whiteSpace=wrap;html=1;" vertex="1" parent="1">
          <mxGeometry x="80" y="560" width="80" height="80" as="geometry" />
        </mxCell>
        <mxCell id="1WSZ2IgdBwN5rXEGsz6p-27" style="edgeStyle=orthogonalEdgeStyle;rounded=0;orthogonalLoop=1;jettySize=auto;html=1;" edge="1" parent="1" source="1WSZ2IgdBwN5rXEGsz6p-22">
          <mxGeometry relative="1" as="geometry">
            <mxPoint x="200" y="880" as="targetPoint" />
          </mxGeometry>
        </mxCell>
        <mxCell id="1WSZ2IgdBwN5rXEGsz6p-22" value="a/b" style="rhombus;whiteSpace=wrap;html=1;" vertex="1" parent="1">
          <mxGeometry x="160" y="680" width="80" height="80" as="geometry" />
        </mxCell>
        <mxCell id="1WSZ2IgdBwN5rXEGsz6p-24" style="edgeStyle=orthogonalEdgeStyle;rounded=0;orthogonalLoop=1;jettySize=auto;html=1;" edge="1" parent="1" source="1WSZ2IgdBwN5rXEGsz6p-23">
          <mxGeometry relative="1" as="geometry">
            <mxPoint x="50" y="800" as="targetPoint" />
          </mxGeometry>
        </mxCell>
        <mxCell id="1WSZ2IgdBwN5rXEGsz6p-23" value="if b == 0" style="rhombus;whiteSpace=wrap;html=1;" vertex="1" parent="1">
          <mxGeometry x="10" y="680" width="80" height="80" as="geometry" />
        </mxCell>
        <mxCell id="1WSZ2IgdBwN5rXEGsz6p-26" style="edgeStyle=orthogonalEdgeStyle;rounded=0;orthogonalLoop=1;jettySize=auto;html=1;exitX=0.5;exitY=1;exitDx=0;exitDy=0;" edge="1" parent="1" source="1WSZ2IgdBwN5rXEGsz6p-25">
          <mxGeometry relative="1" as="geometry">
            <mxPoint x="460" y="880" as="targetPoint" />
            <Array as="points">
              <mxPoint x="80" y="880" />
              <mxPoint x="320" y="880" />
            </Array>
          </mxGeometry>
        </mxCell>
        <mxCell id="1WSZ2IgdBwN5rXEGsz6p-25" value="делить на 0 нельзя" style="shape=parallelogram;perimeter=parallelogramPerimeter;whiteSpace=wrap;html=1;fixedSize=1;" vertex="1" parent="1">
          <mxGeometry x="20" y="800" width="120" height="60" as="geometry" />
        </mxCell>
        <mxCell id="1WSZ2IgdBwN5rXEGsz6p-31" value="конец" style="ellipse;whiteSpace=wrap;html=1;" vertex="1" parent="1">
          <mxGeometry x="460" y="850" width="120" height="80" as="geometry" />
        </mxCell>
      </root>
    </mxGraphModel>
  </diagram>
  <diagram id="BP9mcxt1wZHRb2gxcJvJ" name="Page-2">
    <mxGraphModel dx="1038" dy="539" grid="1" gridSize="10" guides="1" tooltips="1" connect="1" arrows="1" fold="1" page="1" pageScale="1" pageWidth="827" pageHeight="1169" math="0" shadow="0">
      <root>
        <mxCell id="X9kIWHRDvMiDdqDLDgqa-0" />
        <mxCell id="X9kIWHRDvMiDdqDLDgqa-1" parent="X9kIWHRDvMiDdqDLDgqa-0" />
        <mxCell id="X9kIWHRDvMiDdqDLDgqa-3" style="edgeStyle=orthogonalEdgeStyle;rounded=0;orthogonalLoop=1;jettySize=auto;html=1;" edge="1" parent="X9kIWHRDvMiDdqDLDgqa-1" source="X9kIWHRDvMiDdqDLDgqa-2">
          <mxGeometry relative="1" as="geometry">
            <mxPoint x="360" y="110" as="targetPoint" />
          </mxGeometry>
        </mxCell>
        <mxCell id="X9kIWHRDvMiDdqDLDgqa-18" style="edgeStyle=orthogonalEdgeStyle;rounded=0;orthogonalLoop=1;jettySize=auto;html=1;" edge="1" parent="X9kIWHRDvMiDdqDLDgqa-1" source="X9kIWHRDvMiDdqDLDgqa-2">
          <mxGeometry relative="1" as="geometry">
            <mxPoint x="180" y="40" as="targetPoint" />
          </mxGeometry>
        </mxCell>
        <mxCell id="X9kIWHRDvMiDdqDLDgqa-2" value="начало" style="ellipse;whiteSpace=wrap;html=1;" vertex="1" parent="X9kIWHRDvMiDdqDLDgqa-1">
          <mxGeometry x="300" y="10" width="120" height="60" as="geometry" />
        </mxCell>
        <mxCell id="X9kIWHRDvMiDdqDLDgqa-5" style="edgeStyle=orthogonalEdgeStyle;rounded=0;orthogonalLoop=1;jettySize=auto;html=1;" edge="1" parent="X9kIWHRDvMiDdqDLDgqa-1" source="X9kIWHRDvMiDdqDLDgqa-4">
          <mxGeometry relative="1" as="geometry">
            <mxPoint x="360" y="210" as="targetPoint" />
          </mxGeometry>
        </mxCell>
        <mxCell id="X9kIWHRDvMiDdqDLDgqa-4" value="введите num" style="shape=parallelogram;perimeter=parallelogramPerimeter;whiteSpace=wrap;html=1;fixedSize=1;" vertex="1" parent="X9kIWHRDvMiDdqDLDgqa-1">
          <mxGeometry x="300" y="110" width="120" height="60" as="geometry" />
        </mxCell>
        <mxCell id="X9kIWHRDvMiDdqDLDgqa-7" style="edgeStyle=orthogonalEdgeStyle;rounded=0;orthogonalLoop=1;jettySize=auto;html=1;" edge="1" parent="X9kIWHRDvMiDdqDLDgqa-1" source="X9kIWHRDvMiDdqDLDgqa-6">
          <mxGeometry relative="1" as="geometry">
            <mxPoint x="360" y="310" as="targetPoint" />
          </mxGeometry>
        </mxCell>
        <mxCell id="X9kIWHRDvMiDdqDLDgqa-6" value="установить счетчик&amp;nbsp;&lt;br&gt;even&lt;br&gt;odd" style="shape=parallelogram;perimeter=parallelogramPerimeter;whiteSpace=wrap;html=1;fixedSize=1;" vertex="1" parent="X9kIWHRDvMiDdqDLDgqa-1">
          <mxGeometry x="300" y="210" width="120" height="60" as="geometry" />
        </mxCell>
        <mxCell id="X9kIWHRDvMiDdqDLDgqa-9" value="да" style="edgeStyle=orthogonalEdgeStyle;rounded=0;orthogonalLoop=1;jettySize=auto;html=1;" edge="1" parent="X9kIWHRDvMiDdqDLDgqa-1" source="X9kIWHRDvMiDdqDLDgqa-8">
          <mxGeometry relative="1" as="geometry">
            <mxPoint x="440" y="400" as="targetPoint" />
          </mxGeometry>
        </mxCell>
        <mxCell id="X9kIWHRDvMiDdqDLDgqa-10" value="нет" style="edgeStyle=orthogonalEdgeStyle;rounded=0;orthogonalLoop=1;jettySize=auto;html=1;" edge="1" parent="X9kIWHRDvMiDdqDLDgqa-1" source="X9kIWHRDvMiDdqDLDgqa-8">
          <mxGeometry relative="1" as="geometry">
            <mxPoint x="280" y="400" as="targetPoint" />
          </mxGeometry>
        </mxCell>
        <mxCell id="X9kIWHRDvMiDdqDLDgqa-8" value="число четное" style="rhombus;whiteSpace=wrap;html=1;" vertex="1" parent="X9kIWHRDvMiDdqDLDgqa-1">
          <mxGeometry x="320" y="310" width="80" height="80" as="geometry" />
        </mxCell>
        <mxCell id="X9kIWHRDvMiDdqDLDgqa-15" style="edgeStyle=orthogonalEdgeStyle;rounded=0;orthogonalLoop=1;jettySize=auto;html=1;" edge="1" parent="X9kIWHRDvMiDdqDLDgqa-1" source="X9kIWHRDvMiDdqDLDgqa-11">
          <mxGeometry relative="1" as="geometry">
            <mxPoint x="360" y="540" as="targetPoint" />
          </mxGeometry>
        </mxCell>
        <mxCell id="X9kIWHRDvMiDdqDLDgqa-11" value="even +1" style="rhombus;whiteSpace=wrap;html=1;" vertex="1" parent="X9kIWHRDvMiDdqDLDgqa-1">
          <mxGeometry x="400" y="400" width="80" height="80" as="geometry" />
        </mxCell>
        <mxCell id="X9kIWHRDvMiDdqDLDgqa-14" style="edgeStyle=orthogonalEdgeStyle;rounded=0;orthogonalLoop=1;jettySize=auto;html=1;exitX=0.5;exitY=1;exitDx=0;exitDy=0;" edge="1" parent="X9kIWHRDvMiDdqDLDgqa-1" source="X9kIWHRDvMiDdqDLDgqa-12">
          <mxGeometry relative="1" as="geometry">
            <mxPoint x="360" y="540" as="targetPoint" />
          </mxGeometry>
        </mxCell>
        <mxCell id="X9kIWHRDvMiDdqDLDgqa-12" value="odd +1" style="rhombus;whiteSpace=wrap;html=1;" vertex="1" parent="X9kIWHRDvMiDdqDLDgqa-1">
          <mxGeometry x="240" y="400" width="80" height="80" as="geometry" />
        </mxCell>
        <mxCell id="X9kIWHRDvMiDdqDLDgqa-17" style="edgeStyle=orthogonalEdgeStyle;rounded=0;orthogonalLoop=1;jettySize=auto;html=1;exitX=0;exitY=0.5;exitDx=0;exitDy=0;" edge="1" parent="X9kIWHRDvMiDdqDLDgqa-1" source="X9kIWHRDvMiDdqDLDgqa-16">
          <mxGeometry relative="1" as="geometry">
            <mxPoint x="180" y="40" as="targetPoint" />
          </mxGeometry>
        </mxCell>
        <mxCell id="X9kIWHRDvMiDdqDLDgqa-19" style="edgeStyle=orthogonalEdgeStyle;rounded=0;orthogonalLoop=1;jettySize=auto;html=1;" edge="1" parent="X9kIWHRDvMiDdqDLDgqa-1" source="X9kIWHRDvMiDdqDLDgqa-16">
          <mxGeometry relative="1" as="geometry">
            <mxPoint x="370" y="630" as="targetPoint" />
          </mxGeometry>
        </mxCell>
        <mxCell id="X9kIWHRDvMiDdqDLDgqa-16" value="n // 10" style="shape=parallelogram;perimeter=parallelogramPerimeter;whiteSpace=wrap;html=1;fixedSize=1;" vertex="1" parent="X9kIWHRDvMiDdqDLDgqa-1">
          <mxGeometry x="310" y="540" width="120" height="60" as="geometry" />
        </mxCell>
        <mxCell id="X9kIWHRDvMiDdqDLDgqa-20" value="конец" style="ellipse;whiteSpace=wrap;html=1;" vertex="1" parent="X9kIWHRDvMiDdqDLDgqa-1">
          <mxGeometry x="310" y="630" width="120" height="80" as="geometry" />
        </mxCell>
      </root>
    </mxGraphModel>
  </diagram>
  <diagram id="xbwTF3GfLRPPqiA6b2jY" name="Page-3">
    <mxGraphModel dx="1038" dy="539" grid="1" gridSize="10" guides="1" tooltips="1" connect="1" arrows="1" fold="1" page="1" pageScale="1" pageWidth="827" pageHeight="1169" math="0" shadow="0">
      <root>
        <mxCell id="f7UMS-noUHKTFtVy3D74-0" />
        <mxCell id="f7UMS-noUHKTFtVy3D74-1" parent="f7UMS-noUHKTFtVy3D74-0" />
        <mxCell id="f7UMS-noUHKTFtVy3D74-3" style="edgeStyle=orthogonalEdgeStyle;rounded=0;orthogonalLoop=1;jettySize=auto;html=1;" edge="1" parent="f7UMS-noUHKTFtVy3D74-1" source="f7UMS-noUHKTFtVy3D74-2">
          <mxGeometry relative="1" as="geometry">
            <mxPoint x="380" y="120" as="targetPoint" />
          </mxGeometry>
        </mxCell>
        <mxCell id="f7UMS-noUHKTFtVy3D74-13" style="edgeStyle=orthogonalEdgeStyle;rounded=0;orthogonalLoop=1;jettySize=auto;html=1;" edge="1" parent="f7UMS-noUHKTFtVy3D74-1" source="f7UMS-noUHKTFtVy3D74-2">
          <mxGeometry relative="1" as="geometry">
            <mxPoint x="260" y="40" as="targetPoint" />
          </mxGeometry>
        </mxCell>
        <mxCell id="f7UMS-noUHKTFtVy3D74-2" value="начало" style="ellipse;whiteSpace=wrap;html=1;" vertex="1" parent="f7UMS-noUHKTFtVy3D74-1">
          <mxGeometry x="320" y="20" width="120" height="60" as="geometry" />
        </mxCell>
        <mxCell id="f7UMS-noUHKTFtVy3D74-5" style="edgeStyle=orthogonalEdgeStyle;rounded=0;orthogonalLoop=1;jettySize=auto;html=1;" edge="1" parent="f7UMS-noUHKTFtVy3D74-1" source="f7UMS-noUHKTFtVy3D74-4">
          <mxGeometry relative="1" as="geometry">
            <mxPoint x="380" y="210" as="targetPoint" />
          </mxGeometry>
        </mxCell>
        <mxCell id="f7UMS-noUHKTFtVy3D74-4" value="num" style="shape=parallelogram;perimeter=parallelogramPerimeter;whiteSpace=wrap;html=1;fixedSize=1;" vertex="1" parent="f7UMS-noUHKTFtVy3D74-1">
          <mxGeometry x="320" y="120" width="120" height="50" as="geometry" />
        </mxCell>
        <mxCell id="f7UMS-noUHKTFtVy3D74-7" style="edgeStyle=orthogonalEdgeStyle;rounded=0;orthogonalLoop=1;jettySize=auto;html=1;exitX=0.5;exitY=1;exitDx=0;exitDy=0;" edge="1" parent="f7UMS-noUHKTFtVy3D74-1" source="f7UMS-noUHKTFtVy3D74-6">
          <mxGeometry relative="1" as="geometry">
            <mxPoint x="380" y="320" as="targetPoint" />
          </mxGeometry>
        </mxCell>
        <mxCell id="f7UMS-noUHKTFtVy3D74-6" value="num_rev = 0" style="shape=parallelogram;perimeter=parallelogramPerimeter;whiteSpace=wrap;html=1;fixedSize=1;" vertex="1" parent="f7UMS-noUHKTFtVy3D74-1">
          <mxGeometry x="320" y="210" width="120" height="60" as="geometry" />
        </mxCell>
        <mxCell id="f7UMS-noUHKTFtVy3D74-9" style="edgeStyle=orthogonalEdgeStyle;rounded=0;orthogonalLoop=1;jettySize=auto;html=1;" edge="1" parent="f7UMS-noUHKTFtVy3D74-1" source="f7UMS-noUHKTFtVy3D74-8">
          <mxGeometry relative="1" as="geometry">
            <mxPoint x="380" y="420" as="targetPoint" />
          </mxGeometry>
        </mxCell>
        <mxCell id="f7UMS-noUHKTFtVy3D74-8" value="num_rev*0 + num%10" style="shape=parallelogram;perimeter=parallelogramPerimeter;whiteSpace=wrap;html=1;fixedSize=1;" vertex="1" parent="f7UMS-noUHKTFtVy3D74-1">
          <mxGeometry x="320" y="320" width="120" height="60" as="geometry" />
        </mxCell>
        <mxCell id="f7UMS-noUHKTFtVy3D74-11" style="edgeStyle=orthogonalEdgeStyle;rounded=0;orthogonalLoop=1;jettySize=auto;html=1;" edge="1" parent="f7UMS-noUHKTFtVy3D74-1" source="f7UMS-noUHKTFtVy3D74-10">
          <mxGeometry relative="1" as="geometry">
            <mxPoint x="260" y="40" as="targetPoint" />
          </mxGeometry>
        </mxCell>
        <mxCell id="f7UMS-noUHKTFtVy3D74-14" style="edgeStyle=orthogonalEdgeStyle;rounded=0;orthogonalLoop=1;jettySize=auto;html=1;" edge="1" parent="f7UMS-noUHKTFtVy3D74-1" source="f7UMS-noUHKTFtVy3D74-10">
          <mxGeometry relative="1" as="geometry">
            <mxPoint x="380" y="510" as="targetPoint" />
          </mxGeometry>
        </mxCell>
        <mxCell id="f7UMS-noUHKTFtVy3D74-10" value="num//10" style="shape=parallelogram;perimeter=parallelogramPerimeter;whiteSpace=wrap;html=1;fixedSize=1;" vertex="1" parent="f7UMS-noUHKTFtVy3D74-1">
          <mxGeometry x="320" y="420" width="120" height="60" as="geometry" />
        </mxCell>
        <mxCell id="f7UMS-noUHKTFtVy3D74-15" value="конец&lt;br&gt;" style="ellipse;whiteSpace=wrap;html=1;" vertex="1" parent="f7UMS-noUHKTFtVy3D74-1">
          <mxGeometry x="320" y="505" width="120" height="80" as="geometry" />
        </mxCell>
      </root>
    </mxGraphModel>
  </diagram>
  <diagram id="lE0dQlJbUKo1gwbplwdE" name="Page-4">
    <mxGraphModel dx="1038" dy="539" grid="1" gridSize="10" guides="1" tooltips="1" connect="1" arrows="1" fold="1" page="1" pageScale="1" pageWidth="827" pageHeight="1169" math="0" shadow="0">
      <root>
        <mxCell id="pn5yFuABVK7AHUZyT6ts-0" />
        <mxCell id="pn5yFuABVK7AHUZyT6ts-1" parent="pn5yFuABVK7AHUZyT6ts-0" />
        <mxCell id="pn5yFuABVK7AHUZyT6ts-3" style="edgeStyle=orthogonalEdgeStyle;rounded=0;orthogonalLoop=1;jettySize=auto;html=1;" edge="1" parent="pn5yFuABVK7AHUZyT6ts-1" source="pn5yFuABVK7AHUZyT6ts-2">
          <mxGeometry relative="1" as="geometry">
            <mxPoint x="390" y="100" as="targetPoint" />
          </mxGeometry>
        </mxCell>
        <mxCell id="pn5yFuABVK7AHUZyT6ts-31" style="edgeStyle=orthogonalEdgeStyle;rounded=0;orthogonalLoop=1;jettySize=auto;html=1;" edge="1" parent="pn5yFuABVK7AHUZyT6ts-1" source="pn5yFuABVK7AHUZyT6ts-2">
          <mxGeometry relative="1" as="geometry">
            <mxPoint x="120" y="60" as="targetPoint" />
          </mxGeometry>
        </mxCell>
        <mxCell id="pn5yFuABVK7AHUZyT6ts-2" value="начало" style="ellipse;whiteSpace=wrap;html=1;" vertex="1" parent="pn5yFuABVK7AHUZyT6ts-1">
          <mxGeometry x="330" y="10" width="120" height="60" as="geometry" />
        </mxCell>
        <mxCell id="pn5yFuABVK7AHUZyT6ts-5" style="edgeStyle=orthogonalEdgeStyle;rounded=0;orthogonalLoop=1;jettySize=auto;html=1;" edge="1" parent="pn5yFuABVK7AHUZyT6ts-1" source="pn5yFuABVK7AHUZyT6ts-4">
          <mxGeometry relative="1" as="geometry">
            <mxPoint x="390" y="190" as="targetPoint" />
          </mxGeometry>
        </mxCell>
        <mxCell id="pn5yFuABVK7AHUZyT6ts-4" value="import random" style="shape=parallelogram;perimeter=parallelogramPerimeter;whiteSpace=wrap;html=1;fixedSize=1;" vertex="1" parent="pn5yFuABVK7AHUZyT6ts-1">
          <mxGeometry x="330" y="100" width="120" height="60" as="geometry" />
        </mxCell>
        <mxCell id="pn5yFuABVK7AHUZyT6ts-7" style="edgeStyle=orthogonalEdgeStyle;rounded=0;orthogonalLoop=1;jettySize=auto;html=1;" edge="1" parent="pn5yFuABVK7AHUZyT6ts-1" source="pn5yFuABVK7AHUZyT6ts-6">
          <mxGeometry relative="1" as="geometry">
            <mxPoint x="390" y="290" as="targetPoint" />
          </mxGeometry>
        </mxCell>
        <mxCell id="pn5yFuABVK7AHUZyT6ts-6" value="счетчик итераций&amp;nbsp;&lt;br&gt;i = 0" style="shape=parallelogram;perimeter=parallelogramPerimeter;whiteSpace=wrap;html=1;fixedSize=1;" vertex="1" parent="pn5yFuABVK7AHUZyT6ts-1">
          <mxGeometry x="330" y="200" width="120" height="60" as="geometry" />
        </mxCell>
        <mxCell id="pn5yFuABVK7AHUZyT6ts-12" style="edgeStyle=orthogonalEdgeStyle;rounded=0;orthogonalLoop=1;jettySize=auto;html=1;" edge="1" parent="pn5yFuABVK7AHUZyT6ts-1" source="pn5yFuABVK7AHUZyT6ts-8">
          <mxGeometry relative="1" as="geometry">
            <mxPoint x="390" y="480" as="targetPoint" />
          </mxGeometry>
        </mxCell>
        <mxCell id="pn5yFuABVK7AHUZyT6ts-8" value="исполняем пока&amp;nbsp;&lt;br&gt;i&amp;lt;10" style="shape=parallelogram;perimeter=parallelogramPerimeter;whiteSpace=wrap;html=1;fixedSize=1;" vertex="1" parent="pn5yFuABVK7AHUZyT6ts-1">
          <mxGeometry x="330" y="380" width="120" height="60" as="geometry" />
        </mxCell>
        <mxCell id="pn5yFuABVK7AHUZyT6ts-10" style="edgeStyle=orthogonalEdgeStyle;rounded=0;orthogonalLoop=1;jettySize=auto;html=1;" edge="1" parent="pn5yFuABVK7AHUZyT6ts-1" source="pn5yFuABVK7AHUZyT6ts-9">
          <mxGeometry relative="1" as="geometry">
            <mxPoint x="390" y="380" as="targetPoint" />
          </mxGeometry>
        </mxCell>
        <mxCell id="pn5yFuABVK7AHUZyT6ts-9" value="num_r от 1-100" style="shape=parallelogram;perimeter=parallelogramPerimeter;whiteSpace=wrap;html=1;fixedSize=1;" vertex="1" parent="pn5yFuABVK7AHUZyT6ts-1">
          <mxGeometry x="330" y="290" width="120" height="60" as="geometry" />
        </mxCell>
        <mxCell id="pn5yFuABVK7AHUZyT6ts-16" style="edgeStyle=orthogonalEdgeStyle;rounded=0;orthogonalLoop=1;jettySize=auto;html=1;" edge="1" parent="pn5yFuABVK7AHUZyT6ts-1" source="pn5yFuABVK7AHUZyT6ts-15">
          <mxGeometry relative="1" as="geometry">
            <mxPoint x="480" y="580" as="targetPoint" />
          </mxGeometry>
        </mxCell>
        <mxCell id="pn5yFuABVK7AHUZyT6ts-18" value="да" style="edgeLabel;html=1;align=center;verticalAlign=middle;resizable=0;points=[];" vertex="1" connectable="0" parent="pn5yFuABVK7AHUZyT6ts-16">
          <mxGeometry x="-0.2145" y="-3" relative="1" as="geometry">
            <mxPoint as="offset" />
          </mxGeometry>
        </mxCell>
        <mxCell id="pn5yFuABVK7AHUZyT6ts-17" value="нет" style="edgeStyle=orthogonalEdgeStyle;rounded=0;orthogonalLoop=1;jettySize=auto;html=1;exitX=0;exitY=0.5;exitDx=0;exitDy=0;" edge="1" parent="pn5yFuABVK7AHUZyT6ts-1" source="pn5yFuABVK7AHUZyT6ts-15">
          <mxGeometry relative="1" as="geometry">
            <mxPoint x="290" y="580" as="targetPoint" />
          </mxGeometry>
        </mxCell>
        <mxCell id="pn5yFuABVK7AHUZyT6ts-15" value="num &amp;gt; num_r" style="rhombus;whiteSpace=wrap;html=1;" vertex="1" parent="pn5yFuABVK7AHUZyT6ts-1">
          <mxGeometry x="350" y="480" width="80" height="80" as="geometry" />
        </mxCell>
        <mxCell id="pn5yFuABVK7AHUZyT6ts-29" style="edgeStyle=orthogonalEdgeStyle;rounded=0;orthogonalLoop=1;jettySize=auto;html=1;" edge="1" parent="pn5yFuABVK7AHUZyT6ts-1" source="pn5yFuABVK7AHUZyT6ts-19">
          <mxGeometry relative="1" as="geometry">
            <mxPoint x="380" y="890" as="targetPoint" />
            <Array as="points">
              <mxPoint x="440" y="890" />
            </Array>
          </mxGeometry>
        </mxCell>
        <mxCell id="pn5yFuABVK7AHUZyT6ts-19" value="&quot;меньше&quot;" style="rhombus;whiteSpace=wrap;html=1;" vertex="1" parent="pn5yFuABVK7AHUZyT6ts-1">
          <mxGeometry x="440" y="570" width="80" height="80" as="geometry" />
        </mxCell>
        <mxCell id="pn5yFuABVK7AHUZyT6ts-21" value="да" style="edgeStyle=orthogonalEdgeStyle;rounded=0;orthogonalLoop=1;jettySize=auto;html=1;" edge="1" parent="pn5yFuABVK7AHUZyT6ts-1" source="pn5yFuABVK7AHUZyT6ts-20">
          <mxGeometry relative="1" as="geometry">
            <mxPoint x="370" y="710" as="targetPoint" />
          </mxGeometry>
        </mxCell>
        <mxCell id="pn5yFuABVK7AHUZyT6ts-23" value="нет" style="edgeStyle=orthogonalEdgeStyle;rounded=0;orthogonalLoop=1;jettySize=auto;html=1;" edge="1" parent="pn5yFuABVK7AHUZyT6ts-1" source="pn5yFuABVK7AHUZyT6ts-20">
          <mxGeometry relative="1" as="geometry">
            <mxPoint x="180" y="750" as="targetPoint" />
          </mxGeometry>
        </mxCell>
        <mxCell id="pn5yFuABVK7AHUZyT6ts-20" value="num&amp;lt;num_r" style="rhombus;whiteSpace=wrap;html=1;" vertex="1" parent="pn5yFuABVK7AHUZyT6ts-1">
          <mxGeometry x="250" y="580" width="80" height="80" as="geometry" />
        </mxCell>
        <mxCell id="pn5yFuABVK7AHUZyT6ts-27" style="edgeStyle=orthogonalEdgeStyle;rounded=0;orthogonalLoop=1;jettySize=auto;html=1;" edge="1" parent="pn5yFuABVK7AHUZyT6ts-1" source="pn5yFuABVK7AHUZyT6ts-22">
          <mxGeometry relative="1" as="geometry">
            <mxPoint x="380" y="940" as="targetPoint" />
          </mxGeometry>
        </mxCell>
        <mxCell id="pn5yFuABVK7AHUZyT6ts-22" value="&#39;&#39;меньше&quot;" style="rhombus;whiteSpace=wrap;html=1;" vertex="1" parent="pn5yFuABVK7AHUZyT6ts-1">
          <mxGeometry x="334" y="710" width="80" height="80" as="geometry" />
        </mxCell>
        <mxCell id="pn5yFuABVK7AHUZyT6ts-25" style="edgeStyle=orthogonalEdgeStyle;rounded=0;orthogonalLoop=1;jettySize=auto;html=1;exitX=1;exitY=0.5;exitDx=0;exitDy=0;" edge="1" parent="pn5yFuABVK7AHUZyT6ts-1" source="pn5yFuABVK7AHUZyT6ts-24">
          <mxGeometry relative="1" as="geometry">
            <mxPoint x="250" y="850" as="targetPoint" />
          </mxGeometry>
        </mxCell>
        <mxCell id="pn5yFuABVK7AHUZyT6ts-30" style="edgeStyle=orthogonalEdgeStyle;rounded=0;orthogonalLoop=1;jettySize=auto;html=1;" edge="1" parent="pn5yFuABVK7AHUZyT6ts-1" source="pn5yFuABVK7AHUZyT6ts-24">
          <mxGeometry relative="1" as="geometry">
            <mxPoint x="120" y="50" as="targetPoint" />
            <Array as="points">
              <mxPoint x="120" y="790" />
            </Array>
          </mxGeometry>
        </mxCell>
        <mxCell id="pn5yFuABVK7AHUZyT6ts-24" value="num=num_r" style="rhombus;whiteSpace=wrap;html=1;" vertex="1" parent="pn5yFuABVK7AHUZyT6ts-1">
          <mxGeometry x="150" y="750" width="80" height="80" as="geometry" />
        </mxCell>
        <mxCell id="pn5yFuABVK7AHUZyT6ts-28" style="edgeStyle=orthogonalEdgeStyle;rounded=0;orthogonalLoop=1;jettySize=auto;html=1;" edge="1" parent="pn5yFuABVK7AHUZyT6ts-1" source="pn5yFuABVK7AHUZyT6ts-26">
          <mxGeometry relative="1" as="geometry">
            <mxPoint x="380" y="940" as="targetPoint" />
          </mxGeometry>
        </mxCell>
        <mxCell id="pn5yFuABVK7AHUZyT6ts-26" value="bingo" style="shape=parallelogram;perimeter=parallelogramPerimeter;whiteSpace=wrap;html=1;fixedSize=1;" vertex="1" parent="pn5yFuABVK7AHUZyT6ts-1">
          <mxGeometry x="190" y="850" width="120" height="60" as="geometry" />
        </mxCell>
        <mxCell id="pn5yFuABVK7AHUZyT6ts-32" value="конец" style="ellipse;whiteSpace=wrap;html=1;" vertex="1" parent="pn5yFuABVK7AHUZyT6ts-1">
          <mxGeometry x="330" y="940" width="120" height="80" as="geometry" />
        </mxCell>
      </root>
    </mxGraphModel>
  </diagram>
</mxfile>
